<svg width="56" height="56" viewBox="0 0 56 56" fill="none" xmlns="http://www.w3.org/2000/svg">
<rect width="56" height="56" rx="4" fill="#EDEFF5"/>
<g clip-path="url(#clip0_1896_1498)">
<path fill-rule="evenodd" clip-rule="evenodd" d="M24.8312 16C23.5073 16.001 22.4358 17.0755 22.4368 18.3995C22.4358 19.7235 23.5082 20.798 24.8321 20.799H27.2275V18.4005C27.2285 17.0765 26.1561 16.002 24.8312 16C24.8321 16 24.8321 16 24.8312 16V16ZM24.8312 22.4H18.4454C17.1215 22.401 16.0491 23.4755 16.0501 24.7995C16.0481 26.1235 17.1205 27.198 18.4445 27.2H24.8312C26.1551 27.199 27.2275 26.1245 27.2266 24.8005C27.2275 23.4755 26.1551 22.401 24.8312 22.4Z" fill="#36C5F0"/>
<path fill-rule="evenodd" clip-rule="evenodd" d="M40 24.7995C40.001 23.4755 38.9285 22.401 37.6046 22.4C36.2807 22.401 35.2083 23.4755 35.2092 24.7995V27.2H37.6046C38.9285 27.199 40.001 26.1245 40 24.7995ZM33.6133 24.7995V18.3995C33.6143 17.0765 32.5428 16.002 31.2189 16C29.895 16.001 28.8225 17.0755 28.8235 18.3995V24.7995C28.8216 26.1235 29.894 27.198 31.2179 27.2C32.5418 27.199 33.6143 26.1245 33.6133 24.7995Z" fill="#2EB67D"/>
<path fill-rule="evenodd" clip-rule="evenodd" d="M31.2179 39.9998C32.5418 39.9988 33.6143 38.9244 33.6133 37.6003C33.6143 36.2763 32.5418 35.2018 31.2179 35.2008H28.8225V37.6003C28.8215 38.9234 29.894 39.9979 31.2179 39.9998ZM31.2179 33.5988H37.6046C38.9285 33.5979 40.001 32.5234 40 31.1993C40.002 29.8753 38.9295 28.8008 37.6056 28.7988H31.2189C29.895 28.7998 28.8225 29.8743 28.8235 31.1983C28.8225 32.5234 29.894 33.5979 31.2179 33.5988Z" fill="#ECB22E"/>
<path fill-rule="evenodd" clip-rule="evenodd" d="M16.0501 31.1993C16.0491 32.5234 17.1216 33.5979 18.4455 33.5988C19.7694 33.5979 20.8418 32.5234 20.8409 31.1993V28.7998H18.4455C17.1216 28.8008 16.0491 29.8753 16.0501 31.1993ZM22.4368 31.1993V37.5993C22.4348 38.9234 23.5073 39.9979 24.8312 39.9998C26.1551 39.9988 27.2276 38.9243 27.2266 37.6003V31.2013C27.2285 29.8772 26.1561 28.8027 24.8322 28.8008C23.5073 28.8008 22.4358 29.8753 22.4368 31.1993C22.4368 31.2003 22.4368 31.1993 22.4368 31.1993Z" fill="#E01E5A"/>
</g>
<defs>
<clipPath id="clip0_1896_1498">
<rect width="24" height="24" fill="white" transform="translate(16 16)"/>
</clipPath>
</defs>
</svg>
