<svg width="56" height="56" viewBox="0 0 56 56" fill="none" xmlns="http://www.w3.org/2000/svg">
<rect width="56" height="56" rx="4" fill="#1E60C6"/>
<path d="M20.1774 32.101C20.0872 31.6129 19.9699 31.1339 19.9068 30.6459C19.6541 28.7389 20.0602 26.9764 21.188 25.4038C22.0722 24.1656 23.2812 23.307 24.6707 22.7105C26.3398 21.9965 28.1353 21.6079 29.9489 21.5717C31.5639 21.5265 32.9714 22.123 34.1985 23.1353C35.4616 24.1837 36.4361 25.4761 37.1849 26.9313C37.5458 27.6362 37.8797 28.3593 38.2225 29.0823C38.2586 29.1636 38.2857 29.254 38.3037 29.3444C37.8255 29.6336 37.3654 29.9319 36.8782 30.194C35.0737 31.1881 33.1248 31.866 31.0947 32.2185C29.985 32.4083 28.8662 32.5167 27.7474 32.589C26.6827 32.6613 25.618 32.6975 24.5534 32.6704C23.1008 32.6342 21.6571 32.4083 20.1774 32.101ZM22.4692 27.2566C22.4421 28.8473 23.7323 30.1307 25.3023 30.1488C26.818 30.1669 28.2346 29.001 28.2346 27.2928C28.2346 25.5213 26.8722 24.4006 25.3474 24.4006C23.7684 24.4006 22.4782 25.675 22.4692 27.2566ZM33.5579 28.0881C34.415 28.1514 35.3714 27.4374 35.3804 26.2624C35.3895 25.2863 34.6045 24.491 33.6301 24.482H33.594C32.6015 24.4639 31.7895 25.2592 31.7714 26.2444V26.2715C31.7714 27.3018 32.5383 28.0881 33.5579 28.0881Z" fill="white"/>
<path d="M38.3579 29.752C38.4842 31.2703 38.1053 32.608 37.3474 33.8371C36.3188 35.5001 34.785 36.5485 32.9805 37.2083C31.1398 37.8771 29.182 38.1392 27.2331 37.9946C26.0692 37.9132 24.8962 37.7415 23.8496 37.1902C22.0451 36.2322 20.9263 34.7048 20.3399 32.7616C20.3128 32.6441 20.3038 32.5176 20.2947 32.4001C26.6556 33.8733 32.6917 33.2225 38.3579 29.752Z" fill="white"/>
<path d="M38.0602 24.229C38.5293 24.0573 38.5293 24.0483 38.4842 23.6054C38.4571 23.3523 38.4481 23.0993 38.5744 22.8553C38.6286 22.7558 38.6196 22.6293 38.6286 22.5118C38.6466 22.1503 38.9444 21.8701 39.3053 21.8701C39.6662 21.8701 39.9729 22.1593 39.991 22.5209C39.991 22.8824 39.7023 23.1806 39.3414 23.1987C39.2241 23.2077 39.1068 23.1987 38.9444 23.1987C38.9263 23.3795 38.8902 23.5421 38.9083 23.6958C38.9624 24.1387 38.8902 24.5092 38.385 24.699L39.4135 26.5247L37.8707 27.4827C37.2211 25.9734 36.2286 24.7261 35.0376 23.5873L35.9579 22.4666C36.815 22.8733 37.4556 23.5241 38.0602 24.229ZM19.4917 29.8235L17.994 29.3174C17.9218 28.4136 18.1113 27.5731 18.4451 26.7506L17.9218 25.9191C17.7323 25.9191 17.5429 25.9553 17.3805 25.9101C17.0196 25.8288 16.6677 25.7203 16.3338 25.5847C16.0722 25.4763 15.9549 25.1148 16.0271 24.8527C16.1263 24.5363 16.4241 24.3375 16.7489 24.3646C17.0557 24.3917 17.3083 24.6267 17.3534 24.934C17.3714 25.0786 17.3534 25.2322 17.3534 25.413H18.1474C18.4812 25.5486 18.4632 25.9553 18.7158 26.2174C19.212 25.5667 19.6993 24.9159 20.4391 24.455L21.1248 24.9882C20.6015 25.7113 20.0421 26.3891 19.8526 27.2296C19.6632 28.0792 19.609 28.9288 19.4917 29.8235Z" fill="white"/>
<path d="M25.6271 22.1956L25.3203 21.4364C26.1684 20.7586 27.1338 20.4784 28.1534 20.3428C28.1714 20.0717 28.0361 19.9542 27.8286 19.8457C27.1248 19.4842 27.0075 18.6347 27.5669 18.1195C27.9008 17.8122 28.2978 17.767 28.6947 17.9207C29.0556 18.0472 29.3083 18.3816 29.3353 18.7702C29.3985 19.186 29.2 19.5927 28.8391 19.8006C28.7399 19.8548 28.6316 19.9 28.5323 19.9452L28.6406 20.2886C29.5519 20.2705 30.4451 20.2796 31.3293 20.6321L31.203 21.3822C29.3353 21.3912 27.4406 21.2918 25.6271 22.1956Z" fill="white"/>
</svg>
