<svg width="68" height="68" viewBox="0 0 68 68" fill="none" xmlns="http://www.w3.org/2000/svg">
<rect width="68" height="68" rx="6" fill="#EB524F"/>
<g clip-path="url(#clip0_1896_1262)">
<path d="M29.5242 22.573C30.7723 22.9618 31.1596 23.9662 31.1596 25.111C31.1489 26.0182 31.0413 26.9255 30.8261 27.8111C30.3634 29.8307 29.7932 31.8287 29.3198 33.8376C28.9325 35.49 28.5774 37.164 28.5667 38.8705C28.5774 39.3349 28.6527 39.7993 28.7818 40.2421C29.0293 41.1277 29.7717 41.1925 30.3312 40.6525C30.6862 40.3069 31.009 39.9397 31.2995 39.5401C32.6982 37.6716 33.9355 35.6844 34.9899 33.6C36.012 31.6019 38.3467 27.0875 38.4866 26.8174C39.2182 25.4674 41.2409 25.6942 41.8542 27.0119C42.1985 27.7247 42.3922 28.5131 42.4244 29.3015C42.4782 31.0079 42.6396 35.7708 42.7149 36.4512C42.8548 37.7688 43.694 38.1901 44.813 37.4556C45.4908 37.0128 46.1041 36.4512 46.7173 35.922C47.2876 35.4144 47.5888 35.4684 47.8686 36.1812C48.116 36.8076 48.0084 37.434 47.804 38.0281C47.1154 40.0369 45.6199 41.1061 43.6295 41.5381C42.9947 41.6785 42.3384 41.6893 41.6928 41.5813C40.2618 41.3437 39.3473 40.5121 38.7986 39.2269C38.2714 37.9849 38.11 34.4532 37.9917 33.9996C37.798 34.41 35.5063 39.1513 34.3013 40.9549C33.5481 42.1105 32.6336 43.1581 31.5792 44.0546C30.5356 44.9294 29.3521 45.4694 27.9641 45.5018C26.2857 45.545 25.0699 44.7782 24.2307 43.3525C23.6928 42.4345 23.4668 41.4085 23.3915 40.3501C23.2839 38.8705 23.5206 37.4232 23.8434 35.976C23.951 35.5116 24.0263 35.0364 24.1447 34.4424C23.682 34.68 23.3808 34.896 23.0365 35.0148C22.6276 35.1552 22.1865 35.2956 21.7561 35.2848C20.2283 35.2416 20.0024 33.546 20.0024 33.2652C20.5188 32.8656 21.0675 32.4984 21.5409 32.0663C23.8004 30.0143 25.5003 27.5519 26.7268 24.7654C27.1357 23.8474 27.6414 23.059 28.5451 22.573C28.8464 22.4434 29.1154 22.4326 29.5242 22.573Z" fill="white"/>
</g>
<defs>
<clipPath id="clip0_1896_1262">
<rect width="28" height="28" fill="white" transform="translate(20 20)"/>
</clipPath>
</defs>
</svg>
