<svg width="68" height="68" viewBox="0 0 68 68" fill="none" xmlns="http://www.w3.org/2000/svg">
<rect width="68" height="68" rx="6" fill="#6FDA44"/>
<path d="M41.564 35.3283C40.2965 35.3283 39.1088 34.7929 38.0297 33.9214L38.2925 32.6911L38.3039 32.6455C38.5379 31.3356 39.2802 29.1369 41.564 29.1369C43.2768 29.1369 44.67 30.5267 44.67 32.2354C44.6643 33.9384 43.2712 35.3283 41.564 35.3283ZM41.564 25.9986C38.6463 25.9986 36.3855 27.8896 35.4663 30.9995C34.0617 28.8977 32.9996 26.3746 32.3774 24.25H29.2371V32.4006C29.2371 34.0068 27.9239 35.3167 26.3137 35.3167C24.7036 35.3167 23.3905 34.0068 23.3905 32.4006V24.25H20.25V32.4006C20.2386 35.7384 22.962 38.4779 26.3078 38.4779C29.6537 38.4779 32.3772 35.7384 32.3772 32.4006V31.0337C32.9881 32.3038 33.736 33.5853 34.6439 34.7245L32.7197 43.7464H35.9343L37.3273 37.2021C38.5491 37.9824 39.9538 38.4723 41.5639 38.4723C45.0067 38.4723 47.8102 35.6586 47.8102 32.224C47.8102 28.7952 45.0067 25.9986 41.5639 25.9986H41.564Z" fill="white"/>
</svg>
