<svg width="68" height="68" viewBox="0 0 68 68" fill="none" xmlns="http://www.w3.org/2000/svg">
<rect width="68" height="68" rx="6" fill="#191F33"/>
<path d="M35.1808 22.4375C37.0196 20.0128 39.5759 20.001 39.5759 20.001C39.5759 20.001 39.9562 22.2806 38.1294 24.4766C36.1789 26.8215 33.9619 26.4378 33.9619 26.4378C33.9619 26.4378 33.5456 24.5936 35.1808 22.4375ZM34.1958 28.0347C35.1418 28.0347 36.8974 26.7337 39.1826 26.7337C43.1163 26.7337 44.6637 29.5341 44.6637 29.5341C44.6637 29.5341 41.6371 31.0823 41.6371 34.8388C41.6371 39.0765 45.4075 40.537 45.4075 40.537C45.4075 40.537 42.7719 47.9587 39.2119 47.9587C37.5769 47.9587 36.3057 46.8564 34.5829 46.8564C32.8272 46.8564 31.085 47.9999 29.9503 47.9999C26.6995 47.9999 22.5927 40.9597 22.5927 35.3004C22.5927 29.7326 26.0688 26.8117 29.3294 26.8117C31.449 26.8117 33.0938 28.0347 34.1958 28.0347Z" fill="white"/>
</svg>
