<svg width="68" height="68" viewBox="0 0 68 68" fill="none" xmlns="http://www.w3.org/2000/svg">
<rect width="68" height="68" rx="6" fill="#EDEFF5"/>
<g clip-path="url(#clip0_1896_1330)">
<path d="M26.2054 36.9207L25.2307 40.5592L21.6685 40.6346C20.6039 38.66 20 36.4008 20 34C20 31.6785 20.5646 29.4892 21.5654 27.5615H21.5661L24.7376 28.143L26.1269 31.2954C25.8361 32.1431 25.6776 33.0531 25.6776 34C25.6777 35.0277 25.8639 36.0123 26.2054 36.9207Z" fill="#FBBB00"/>
<path d="M47.7553 31.3848C47.9161 32.2317 48 33.1063 48 34.0001C48 35.0025 47.8946 35.9802 47.6938 36.9232C47.0123 40.1325 45.2315 42.9348 42.7646 44.9178L42.7638 44.9171L38.7693 44.7133L38.2039 41.184C39.8408 40.224 41.1201 38.7217 41.7939 36.9232H34.3077V31.3848H41.9031H47.7553Z" fill="#518EF8"/>
<path d="M42.7639 44.917L42.7647 44.9178C40.3655 46.8462 37.3177 48.0001 34.0001 48.0001C28.6685 48.0001 24.0332 45.0201 21.6685 40.6347L26.2054 36.9209C27.3877 40.0763 30.4316 42.3224 34.0001 42.3224C35.5339 42.3224 36.9708 41.9078 38.2039 41.184L42.7639 44.917Z" fill="#28B446"/>
<path d="M42.9361 23.2231L38.4007 26.9361C37.1246 26.1385 35.6161 25.6777 34 25.6777C30.3507 25.6777 27.25 28.0269 26.1269 31.2954L21.5661 27.5615H21.5654C23.8954 23.0692 28.5892 20 34 20C37.3969 20 40.5115 21.21 42.9361 23.2231Z" fill="#F14336"/>
</g>
<defs>
<clipPath id="clip0_1896_1330">
<rect width="28" height="28" fill="white" transform="translate(20 20)"/>
</clipPath>
</defs>
</svg>
