<svg width="68" height="68" viewBox="0 0 68 68" fill="none" xmlns="http://www.w3.org/2000/svg">
<rect width="68" height="68" rx="6" fill="black"/>
<path d="M28.9696 48.0003C31.5048 48.0003 33.5624 45.9096 33.5624 43.3336V38.667H28.9696C26.4343 38.667 24.3768 40.7576 24.3768 43.3336C24.3768 45.9096 26.4343 48.0003 28.9696 48.0003Z" fill="#0ACF83"/>
<path d="M24.3768 33.9996C24.3768 31.4237 26.4343 29.333 28.9696 29.333H33.5624V38.6663H28.9696C26.4343 38.6663 24.3768 36.5756 24.3768 33.9996Z" fill="#A259FF"/>
<path d="M24.3772 24.6667C24.3772 22.0907 26.4348 20 28.97 20H33.5628V29.3333H28.97C26.4348 29.3333 24.3772 27.2427 24.3772 24.6667Z" fill="#F24E1E"/>
<path d="M33.5625 20H38.1554C40.6906 20 42.7482 22.0907 42.7482 24.6667C42.7482 27.2427 40.6906 29.3333 38.1554 29.3333H33.5625V20Z" fill="#FF7262"/>
<path d="M42.7482 33.9996C42.7482 36.5756 40.6906 38.6663 38.1554 38.6663C35.6201 38.6663 33.5625 36.5756 33.5625 33.9996C33.5625 31.4237 35.6201 29.333 38.1554 29.333C40.6906 29.333 42.7482 31.4237 42.7482 33.9996Z" fill="#1ABCFE"/>
</svg>
