<svg width="143" height="40" viewBox="0 0 143 40" fill="none" xmlns="http://www.w3.org/2000/svg">
<g clip-path="url(#clip0_1647_31213)">
<path d="M33.75 11.25H6.25C5.55964 11.25 5 11.8096 5 12.5V32.5C5 33.1904 5.55964 33.75 6.25 33.75H33.75C34.4404 33.75 35 33.1904 35 32.5V12.5C35 11.8096 34.4404 11.25 33.75 11.25Z" stroke="#0A65CC" stroke-width="2.5" stroke-linecap="round" stroke-linejoin="round"/>
<path d="M26.25 11.25V8.75C26.25 8.08696 25.9866 7.45107 25.5178 6.98223C25.0489 6.51339 24.413 6.25 23.75 6.25H16.25C15.587 6.25 14.9511 6.51339 14.4822 6.98223C14.0134 7.45107 13.75 8.08696 13.75 8.75V11.25" stroke="#0A65CC" stroke-width="2.5" stroke-linecap="round" stroke-linejoin="round"/>
<path d="M35.0002 19.7358C30.4413 22.3734 25.2659 23.7583 19.999 23.75C14.7329 23.7583 9.55838 22.3739 5 19.7372" stroke="#0A65CC" stroke-width="2.5" stroke-linecap="round" stroke-linejoin="round"/>
<path d="M18.125 18.75H21.875" stroke="#0A65CC" stroke-width="2.5" stroke-linecap="round" stroke-linejoin="round"/>
</g>
<path d="M56.608 11.5455H59.7443V23.8182C59.7386 24.9432 59.5 25.9119 59.0284 26.7244C58.5568 27.5312 57.8977 28.1534 57.0511 28.5909C56.2102 29.0227 55.2301 29.2386 54.1108 29.2386C53.0881 29.2386 52.1676 29.0568 51.3494 28.6932C50.5369 28.3239 49.892 27.7784 49.4148 27.0568C48.9375 26.3352 48.6989 25.4375 48.6989 24.3636H51.8438C51.8494 24.8352 51.9517 25.2415 52.1506 25.5824C52.3551 25.9233 52.6364 26.1847 52.9943 26.3665C53.3523 26.5483 53.7642 26.6392 54.2301 26.6392C54.7358 26.6392 55.1648 26.5341 55.517 26.3239C55.8693 26.108 56.1364 25.7898 56.3182 25.3693C56.5057 24.9489 56.6023 24.4318 56.608 23.8182V11.5455ZM68.7486 29.2557C67.4702 29.2557 66.3622 28.9744 65.4247 28.4119C64.4872 27.8494 63.7599 27.0625 63.2429 26.0511C62.7315 25.0398 62.4759 23.858 62.4759 22.5057C62.4759 21.1534 62.7315 19.9687 63.2429 18.9517C63.7599 17.9347 64.4872 17.1449 65.4247 16.5824C66.3622 16.0199 67.4702 15.7386 68.7486 15.7386C70.027 15.7386 71.1349 16.0199 72.0724 16.5824C73.0099 17.1449 73.7344 17.9347 74.2457 18.9517C74.7628 19.9687 75.0213 21.1534 75.0213 22.5057C75.0213 23.858 74.7628 25.0398 74.2457 26.0511C73.7344 27.0625 73.0099 27.8494 72.0724 28.4119C71.1349 28.9744 70.027 29.2557 68.7486 29.2557ZM68.7656 26.7841C69.4588 26.7841 70.0384 26.5937 70.5043 26.2131C70.9702 25.8267 71.3168 25.3097 71.544 24.6619C71.777 24.0142 71.8935 23.2926 71.8935 22.4972C71.8935 21.696 71.777 20.9716 71.544 20.3239C71.3168 19.6705 70.9702 19.1506 70.5043 18.7642C70.0384 18.3778 69.4588 18.1847 68.7656 18.1847C68.0554 18.1847 67.4645 18.3778 66.9929 18.7642C66.527 19.1506 66.1776 19.6705 65.9446 20.3239C65.7173 20.9716 65.6037 21.696 65.6037 22.4972C65.6037 23.2926 65.7173 24.0142 65.9446 24.6619C66.1776 25.3097 66.527 25.8267 66.9929 26.2131C67.4645 26.5937 68.0554 26.7841 68.7656 26.7841ZM77.7763 29V11.5455H80.8615V18.0739H80.9893C81.1484 17.7557 81.3729 17.4176 81.6626 17.0597C81.9524 16.696 82.3445 16.3864 82.8388 16.1307C83.3331 15.8693 83.9638 15.7386 84.7308 15.7386C85.7422 15.7386 86.6541 15.9972 87.4666 16.5142C88.2848 17.0256 88.9325 17.7841 89.4098 18.7898C89.8928 19.7898 90.1342 21.017 90.1342 22.4716C90.1342 23.9091 89.8984 25.1307 89.4268 26.1364C88.9553 27.142 88.3132 27.9091 87.5007 28.4375C86.6882 28.9659 85.7678 29.2301 84.7393 29.2301C83.9893 29.2301 83.3672 29.1051 82.8729 28.8551C82.3786 28.6051 81.9808 28.304 81.6797 27.9517C81.3842 27.5937 81.1541 27.2557 80.9893 26.9375H80.8104V29H77.7763ZM80.8018 22.4545C80.8018 23.3011 80.9212 24.0426 81.1598 24.679C81.4041 25.3153 81.7536 25.8125 82.2081 26.1705C82.6683 26.5227 83.2251 26.6989 83.8786 26.6989C84.5604 26.6989 85.1314 26.517 85.5916 26.1534C86.0518 25.7841 86.3984 25.2812 86.6314 24.6449C86.87 24.0028 86.9893 23.2727 86.9893 22.4545C86.9893 21.642 86.8729 20.9205 86.6399 20.2898C86.407 19.6591 86.0604 19.1648 85.6001 18.8068C85.1399 18.4489 84.5661 18.2699 83.8786 18.2699C83.2195 18.2699 82.6598 18.4432 82.1996 18.7898C81.7393 19.1364 81.3899 19.6222 81.1513 20.2472C80.9183 20.8722 80.8018 21.608 80.8018 22.4545ZM92.7571 33.9091V15.9091H95.7912V18.0739H95.9702C96.1293 17.7557 96.3537 17.4176 96.6435 17.0597C96.9332 16.696 97.3253 16.3864 97.8196 16.1307C98.3139 15.8693 98.9446 15.7386 99.7116 15.7386C100.723 15.7386 101.635 15.9972 102.447 16.5142C103.266 17.0256 103.913 17.7841 104.391 18.7898C104.874 19.7898 105.115 21.017 105.115 22.4716C105.115 23.9091 104.879 25.1307 104.408 26.1364C103.936 27.142 103.294 27.9091 102.482 28.4375C101.669 28.9659 100.749 29.2301 99.7202 29.2301C98.9702 29.2301 98.348 29.1051 97.8537 28.8551C97.3594 28.6051 96.9616 28.304 96.6605 27.9517C96.3651 27.5937 96.1349 27.2557 95.9702 26.9375H95.8423V33.9091H92.7571ZM95.7827 22.4545C95.7827 23.3011 95.902 24.0426 96.1406 24.679C96.3849 25.3153 96.7344 25.8125 97.1889 26.1705C97.6491 26.5227 98.206 26.6989 98.8594 26.6989C99.5412 26.6989 100.112 26.517 100.572 26.1534C101.033 25.7841 101.379 25.2812 101.612 24.6449C101.851 24.0028 101.97 23.2727 101.97 22.4545C101.97 21.642 101.854 20.9205 101.621 20.2898C101.388 19.6591 101.041 19.1648 100.581 18.8068C100.121 18.4489 99.5469 18.2699 98.8594 18.2699C98.2003 18.2699 97.6406 18.4432 97.1804 18.7898C96.7202 19.1364 96.3707 19.6222 96.1321 20.2472C95.8991 20.8722 95.7827 21.608 95.7827 22.4545ZM107.757 29V15.9091H110.842V29H107.757ZM109.308 14.0511C108.82 14.0511 108.399 13.8892 108.047 13.5653C107.695 13.2358 107.518 12.8409 107.518 12.3807C107.518 11.9148 107.695 11.5199 108.047 11.196C108.399 10.8665 108.82 10.7017 109.308 10.7017C109.803 10.7017 110.223 10.8665 110.57 11.196C110.922 11.5199 111.098 11.9148 111.098 12.3807C111.098 12.8409 110.922 13.2358 110.57 13.5653C110.223 13.8892 109.803 14.0511 109.308 14.0511ZM117.1 11.5455V29H114.015V11.5455H117.1ZM125.983 29.2557C124.705 29.2557 123.597 28.9744 122.659 28.4119C121.722 27.8494 120.994 27.0625 120.477 26.0511C119.966 25.0398 119.71 23.858 119.71 22.5057C119.71 21.1534 119.966 19.9687 120.477 18.9517C120.994 17.9347 121.722 17.1449 122.659 16.5824C123.597 16.0199 124.705 15.7386 125.983 15.7386C127.261 15.7386 128.369 16.0199 129.307 16.5824C130.244 17.1449 130.969 17.9347 131.48 18.9517C131.997 19.9687 132.256 21.1534 132.256 22.5057C132.256 23.858 131.997 25.0398 131.48 26.0511C130.969 27.0625 130.244 27.8494 129.307 28.4119C128.369 28.9744 127.261 29.2557 125.983 29.2557ZM126 26.7841C126.693 26.7841 127.273 26.5937 127.739 26.2131C128.205 25.8267 128.551 25.3097 128.778 24.6619C129.011 24.0142 129.128 23.2926 129.128 22.4972C129.128 21.696 129.011 20.9716 128.778 20.3239C128.551 19.6705 128.205 19.1506 127.739 18.7642C127.273 18.3778 126.693 18.1847 126 18.1847C125.29 18.1847 124.699 18.3778 124.227 18.7642C123.761 19.1506 123.412 19.6705 123.179 20.3239C122.952 20.9716 122.838 21.696 122.838 22.4972C122.838 23.2926 122.952 24.0142 123.179 24.6619C123.412 25.3097 123.761 25.8267 124.227 26.2131C124.699 26.5937 125.29 26.7841 126 26.7841ZM141.411 15.9091V18.2955H133.886V15.9091H141.411ZM135.744 12.7727H138.829V25.0625C138.829 25.4773 138.891 25.7955 139.016 26.017C139.147 26.233 139.317 26.3807 139.528 26.4602C139.738 26.5398 139.971 26.5795 140.227 26.5795C140.42 26.5795 140.596 26.5653 140.755 26.5369C140.92 26.5085 141.045 26.483 141.13 26.4602L141.65 28.8722C141.485 28.929 141.249 28.9915 140.942 29.0597C140.641 29.1278 140.272 29.1676 139.835 29.179C139.062 29.2017 138.366 29.0852 137.746 28.8295C137.127 28.5682 136.636 28.1648 136.272 27.6193C135.914 27.0739 135.738 26.392 135.744 25.5739V12.7727Z" fill="#18191C"/>
<defs>
<clipPath id="clip0_1647_31213">
<rect width="40" height="40" fill="white"/>
</clipPath>
</defs>
</svg>
