<svg width="136" height="40" viewBox="0 0 136 40" fill="none" xmlns="http://www.w3.org/2000/svg">
<g clip-path="url(#clip0_1896_1640)">
<path d="M33.7512 11.25H6.25122C5.56086 11.25 5.00122 11.8096 5.00122 12.5V32.5C5.00122 33.1904 5.56086 33.75 6.25122 33.75H33.7512C34.4416 33.75 35.0012 33.1904 35.0012 32.5V12.5C35.0012 11.8096 34.4416 11.25 33.7512 11.25Z" stroke="white" stroke-width="2.5" stroke-linecap="round" stroke-linejoin="round"/>
<path d="M26.25 11.25V8.75C26.25 8.08696 25.9866 7.45107 25.5178 6.98223C25.0489 6.51339 24.413 6.25 23.75 6.25H16.25C15.587 6.25 14.9511 6.51339 14.4822 6.98223C14.0134 7.45107 13.75 8.08696 13.75 8.75V11.25" stroke="white" stroke-width="2.5" stroke-linecap="round" stroke-linejoin="round"/>
<path d="M35.0013 19.7354C30.4424 22.3729 25.2669 23.7578 20 23.7495C14.734 23.7578 9.55941 22.3734 5.00104 19.7367" stroke="white" stroke-width="2.5" stroke-linecap="round" stroke-linejoin="round"/>
<path d="M18.125 18.75H21.875" stroke="white" stroke-width="2.5" stroke-linecap="round" stroke-linejoin="round"/>
</g>
<path d="M49.7216 29V11.5455H61.0739V14.196H52.8835V18.9347H60.4858V21.5852H52.8835V26.3494H61.142V29H49.7216ZM69.0213 29.2301C67.9929 29.2301 67.0724 28.9659 66.2599 28.4375C65.4474 27.9091 64.8054 27.142 64.3338 26.1364C63.8622 25.1307 63.6264 23.9091 63.6264 22.4716C63.6264 21.017 63.8651 19.7898 64.3423 18.7898C64.8253 17.7841 65.4759 17.0256 66.294 16.5142C67.1122 15.9972 68.0241 15.7386 69.0298 15.7386C69.7969 15.7386 70.4276 15.8693 70.9219 16.1307C71.4162 16.3864 71.8082 16.696 72.098 17.0597C72.3878 17.4176 72.6122 17.7557 72.7713 18.0739H72.8991V11.5455H75.9929V29H72.9588V26.9375H72.7713C72.6122 27.2557 72.3821 27.5937 72.081 27.9517C71.7798 28.304 71.3821 28.6051 70.8878 28.8551C70.3935 29.1051 69.7713 29.2301 69.0213 29.2301ZM69.8821 26.6989C70.5355 26.6989 71.0923 26.5227 71.5526 26.1705C72.0128 25.8125 72.3622 25.3153 72.6009 24.679C72.8395 24.0426 72.9588 23.3011 72.9588 22.4545C72.9588 21.608 72.8395 20.8722 72.6009 20.2472C72.3679 19.6222 72.0213 19.1364 71.5611 18.7898C71.1065 18.4432 70.5469 18.2699 69.8821 18.2699C69.1946 18.2699 68.6207 18.4489 68.1605 18.8068C67.7003 19.1648 67.3537 19.6591 67.1207 20.2898C66.8878 20.9205 66.7713 21.642 66.7713 22.4545C66.7713 23.2727 66.8878 24.0028 67.1207 24.6449C67.3594 25.2812 67.7088 25.7841 68.169 26.1534C68.6349 26.517 69.206 26.6989 69.8821 26.6989ZM87.6243 23.4943V15.9091H90.7095V29H87.718V26.6733H87.5817C87.2862 27.4062 86.8004 28.0057 86.1243 28.4716C85.4538 28.9375 84.6271 29.1705 83.6442 29.1705C82.7862 29.1705 82.0277 28.9801 81.3686 28.5994C80.7152 28.2131 80.2038 27.6534 79.8345 26.9205C79.4652 26.1818 79.2805 25.2898 79.2805 24.2443V15.9091H82.3658V23.767C82.3658 24.5966 82.593 25.2557 83.0476 25.7443C83.5021 26.233 84.0987 26.4773 84.8374 26.4773C85.2919 26.4773 85.7322 26.3665 86.1584 26.1449C86.5845 25.9233 86.9339 25.5938 87.2067 25.1562C87.4851 24.7131 87.6243 24.1591 87.6243 23.4943ZM100.905 11.5455H104.041V23.8182C104.036 24.9432 103.797 25.9119 103.325 26.7244C102.854 27.5312 102.195 28.1534 101.348 28.5909C100.507 29.0227 99.527 29.2386 98.4077 29.2386C97.3849 29.2386 96.4645 29.0568 95.6463 28.6932C94.8338 28.3239 94.1889 27.7784 93.7116 27.0568C93.2344 26.3352 92.9957 25.4375 92.9957 24.3636H96.1406C96.1463 24.8352 96.2486 25.2415 96.4474 25.5824C96.652 25.9233 96.9332 26.1847 97.2912 26.3665C97.6491 26.5483 98.0611 26.6392 98.527 26.6392C99.0327 26.6392 99.4616 26.5341 99.8139 26.3239C100.166 26.108 100.433 25.7898 100.615 25.3693C100.803 24.9489 100.899 24.4318 100.905 23.8182V11.5455ZM113.045 29.2557C111.767 29.2557 110.659 28.9744 109.722 28.4119C108.784 27.8494 108.057 27.0625 107.54 26.0511C107.028 25.0398 106.773 23.858 106.773 22.5057C106.773 21.1534 107.028 19.9687 107.54 18.9517C108.057 17.9347 108.784 17.1449 109.722 16.5824C110.659 16.0199 111.767 15.7386 113.045 15.7386C114.324 15.7386 115.432 16.0199 116.369 16.5824C117.307 17.1449 118.031 17.9347 118.543 18.9517C119.06 19.9687 119.318 21.1534 119.318 22.5057C119.318 23.858 119.06 25.0398 118.543 26.0511C118.031 27.0625 117.307 27.8494 116.369 28.4119C115.432 28.9744 114.324 29.2557 113.045 29.2557ZM113.062 26.7841C113.756 26.7841 114.335 26.5937 114.801 26.2131C115.267 25.8267 115.614 25.3097 115.841 24.6619C116.074 24.0142 116.19 23.2926 116.19 22.4972C116.19 21.696 116.074 20.9716 115.841 20.3239C115.614 19.6705 115.267 19.1506 114.801 18.7642C114.335 18.3778 113.756 18.1847 113.062 18.1847C112.352 18.1847 111.761 18.3778 111.29 18.7642C110.824 19.1506 110.474 19.6705 110.241 20.3239C110.014 20.9716 109.901 21.696 109.901 22.4972C109.901 23.2926 110.014 24.0142 110.241 24.6619C110.474 25.3097 110.824 25.8267 111.29 26.2131C111.761 26.5937 112.352 26.7841 113.062 26.7841ZM122.073 29V11.5455H125.158V18.0739H125.286C125.445 17.7557 125.67 17.4176 125.96 17.0597C126.249 16.696 126.641 16.3864 127.136 16.1307C127.63 15.8693 128.261 15.7386 129.028 15.7386C130.039 15.7386 130.951 15.9972 131.763 16.5142C132.582 17.0256 133.229 17.7841 133.707 18.7898C134.19 19.7898 134.431 21.017 134.431 22.4716C134.431 23.9091 134.195 25.1307 133.724 26.1364C133.252 27.142 132.61 27.9091 131.798 28.4375C130.985 28.9659 130.065 29.2301 129.036 29.2301C128.286 29.2301 127.664 29.1051 127.17 28.8551C126.675 28.6051 126.278 28.304 125.977 27.9517C125.681 27.5937 125.451 27.2557 125.286 26.9375H125.107V29H122.073ZM125.099 22.4545C125.099 23.3011 125.218 24.0426 125.457 24.679C125.701 25.3153 126.05 25.8125 126.505 26.1705C126.965 26.5227 127.522 26.6989 128.175 26.6989C128.857 26.6989 129.428 26.517 129.888 26.1534C130.349 25.7841 130.695 25.2812 130.928 24.6449C131.167 24.0028 131.286 23.2727 131.286 22.4545C131.286 21.642 131.17 20.9205 130.937 20.2898C130.704 19.6591 130.357 19.1648 129.897 18.8068C129.437 18.4489 128.863 18.2699 128.175 18.2699C127.516 18.2699 126.957 18.4432 126.496 18.7898C126.036 19.1364 125.687 19.6222 125.448 20.2472C125.215 20.8722 125.099 21.608 125.099 22.4545Z" fill="white"/>
<defs>
<clipPath id="clip0_1896_1640">
<rect width="40" height="40" fill="white"/>
</clipPath>
</defs>
</svg>
