<svg width="148" height="28" viewBox="0 0 148 28" fill="none" xmlns="http://www.w3.org/2000/svg">
<path d="M12.9241 4.51296C13.3643 3.62116 14.636 3.62116 15.0762 4.51296L17.3262 9.07125C17.5009 9.42507 17.8383 9.67042 18.2287 9.72748L23.2623 10.4632C24.2462 10.607 24.6383 11.8164 23.926 12.5102L20.2856 16.0559C20.0026 16.3316 19.8734 16.729 19.9402 17.1184L20.7991 22.1262C20.9672 23.1065 19.9382 23.8541 19.0578 23.3911L14.5587 21.0251C14.209 20.8412 13.7913 20.8412 13.4416 21.0251L8.94252 23.3911C8.06217 23.8541 7.03311 23.1065 7.20125 22.1262L8.06013 17.1184C8.12693 16.729 7.99773 16.3316 7.71468 16.0559L4.07431 12.5102C3.362 11.8164 3.75414 10.607 4.73804 10.4632L9.7716 9.72748C10.162 9.67042 10.4995 9.42507 10.6741 9.07125L12.9241 4.51296Z" fill="#FFAA00"/>
<path d="M42.9241 4.51296C43.3643 3.62116 44.636 3.62116 45.0762 4.51296L47.3262 9.07125C47.5009 9.42507 47.8383 9.67042 48.2287 9.72748L53.2623 10.4632C54.2462 10.607 54.6383 11.8164 53.926 12.5102L50.2856 16.0559C50.0026 16.3316 49.8734 16.729 49.9402 17.1184L50.7991 22.1262C50.9672 23.1065 49.9382 23.8541 49.0578 23.3911L44.5587 21.0251C44.209 20.8412 43.7913 20.8412 43.4416 21.0251L38.9425 23.3911C38.0622 23.8541 37.0331 23.1065 37.2013 22.1262L38.0601 17.1184C38.1269 16.729 37.9977 16.3316 37.7147 16.0559L34.0743 12.5102C33.362 11.8164 33.7541 10.607 34.738 10.4632L39.7716 9.72748C40.162 9.67042 40.4995 9.42507 40.6741 9.07125L42.9241 4.51296Z" fill="#FFAA00"/>
<path d="M72.9241 4.51296C73.3643 3.62116 74.636 3.62116 75.0762 4.51296L77.3262 9.07125C77.5009 9.42507 77.8383 9.67042 78.2287 9.72748L83.2623 10.4632C84.2462 10.607 84.6383 11.8164 83.926 12.5102L80.2856 16.0559C80.0026 16.3316 79.8734 16.729 79.9402 17.1184L80.7991 22.1262C80.9672 23.1065 79.9382 23.8541 79.0578 23.3911L74.5587 21.0251C74.209 20.8412 73.7913 20.8412 73.4416 21.0251L68.9425 23.3911C68.0622 23.8541 67.0331 23.1065 67.2013 22.1262L68.0601 17.1184C68.1269 16.729 67.9977 16.3316 67.7147 16.0559L64.0743 12.5102C63.362 11.8164 63.7541 10.607 64.738 10.4632L69.7716 9.72748C70.162 9.67042 70.4995 9.42507 70.6741 9.07125L72.9241 4.51296Z" fill="#FFAA00"/>
<path d="M102.924 4.51296C103.364 3.62116 104.636 3.62116 105.076 4.51296L107.326 9.07125C107.501 9.42507 107.838 9.67042 108.229 9.72748L113.262 10.4632C114.246 10.607 114.638 11.8164 113.926 12.5102L110.286 16.0559C110.003 16.3316 109.873 16.729 109.94 17.1184L110.799 22.1262C110.967 23.1065 109.938 23.8541 109.058 23.3911L104.559 21.0251C104.209 20.8412 103.791 20.8412 103.442 21.0251L98.9425 23.3911C98.0622 23.8541 97.0331 23.1065 97.2013 22.1262L98.0601 17.1184C98.1269 16.729 97.9977 16.3316 97.7147 16.0559L94.0743 12.5102C93.362 11.8164 93.7541 10.607 94.738 10.4632L99.7716 9.72748C100.162 9.67042 100.499 9.42507 100.674 9.07125L102.924 4.51296Z" fill="#FFAA00"/>
<path d="M132.924 4.51296C133.364 3.62116 134.636 3.62116 135.076 4.51296L137.326 9.07125C137.501 9.42507 137.838 9.67042 138.229 9.72748L143.262 10.4632C144.246 10.607 144.638 11.8164 143.926 12.5102L140.286 16.0559C140.003 16.3316 139.873 16.729 139.94 17.1184L140.799 22.1262C140.967 23.1065 139.938 23.8541 139.058 23.3911L134.559 21.0251C134.209 20.8412 133.791 20.8412 133.442 21.0251L128.943 23.3911C128.062 23.8541 127.033 23.1065 127.201 22.1262L128.06 17.1184C128.127 16.729 127.998 16.3316 127.715 16.0559L124.074 12.5102C123.362 11.8164 123.754 10.607 124.738 10.4632L129.772 9.72748C130.162 9.67042 130.499 9.42507 130.674 9.07125L132.924 4.51296Z" fill="#FFAA00"/>
</svg>
