<svg width="20" height="20" viewBox="0 0 20 20" fill="none" xmlns="http://www.w3.org/2000/svg">
<g clip-path="url(#clip0_1896_1707)">
<path d="M19.5879 5.19897C19.3573 4.34219 18.6818 3.66684 17.8252 3.43612C16.2601 3.00781 9.99977 3.00781 9.99977 3.00781C9.99977 3.00781 3.73958 3.00781 2.17449 3.4198C1.33434 3.65036 0.642362 4.34234 0.411802 5.19897C-3.05176e-05 6.7639 -3.05176e-05 10.0094 -3.05176e-05 10.0094C-3.05176e-05 10.0094 -3.05176e-05 13.2713 0.411802 14.8199C0.642514 15.6765 1.31787 16.352 2.17464 16.5827C3.75606 17.011 9.99993 17.011 9.99993 17.011C9.99993 17.011 16.2601 17.011 17.8252 16.5991C18.682 16.3685 19.3573 15.693 19.5881 14.8364C19.9999 13.2713 19.9999 10.0259 19.9999 10.0259C19.9999 10.0259 20.0164 6.7639 19.5879 5.19897Z" fill="#767F8C"/>
<path d="M8.00653 13.0074L13.2124 10.0091L8.00653 7.01074V13.0074Z" fill="#18191C"/>
</g>
<defs>
<clipPath id="clip0_1896_1707">
<rect width="20" height="20" fill="white"/>
</clipPath>
</defs>
</svg>
